#!OML:ASF H:\MichaelJackson\Top Level 1\Subject 1\Session 1\male.ASF
:FULLY-SPECIFIED
:DEGREES
1
root 18.5724 16.8276 -17.9731 5.95222 -2.17171 -1.04065
lowerback -2.97556 1.96923 -4.14747
upperback -1.32309 2.72825 2.92091
thorax -0.0333684 1.40109 5.42217
lowerneck -10.878 -1.70083 2.09632
upperneck 1.32771 -2.40135 -2.96037
head 2.24731 -1.27787 -1.44413
rclavicle -5.64051e-015 2.5842e-014
rhumerus -55.0654 9.04074 -92.5956
rradius 53.2901
rwrist 23.0761
rhand -9.1781 -26.1866
rfingers 7.12502
rthumb 16.775 -55.4819
lclavicle -5.64051e-015 2.5842e-014
lhumerus -50.4288 -24.4893 111.018
lradius 55.8133
lwrist 14.3711
lhand 24.9994 17.825
lfingers 7.12502
lthumb 49.1606 39.4776
rfemur -15.8804 3.47088 23.6434
rtibia 32.5577
rfoot -29.7469 -15.3204
rtoes 19.8181
lfemur -19.6539 4.09111 -21.4823
ltibia 35.0908
lfoot -40.7458 2.20994
ltoes 43.4105
2
root 18.5687 16.8282 -17.9786 5.97451 -2.08661 -0.998077
lowerback -2.92133 1.94228 -4.12211
upperback -1.31559 2.68984 2.93194
thorax -0.0505165 1.38203 5.41651
lowerneck -10.9292 -1.22799 2.15049
upperneck 1.54902 -1.76277 -3.24531
head 2.34873 -0.969903 -1.51904
rclavicle 2.44257e-014 -1.82882e-014
rhumerus -55.8611 9.55037 -92.7329
rradius 55.6411
rwrist 24.3871
rhand -8.9812 -26.2194
rfingers 7.12502
rthumb 16.9645 -55.4985
lclavicle 2.44257e-014 -1.82882e-014
lhumerus -50.8038 -24.7451 111.117
lradius 56.7736
lwrist 14.4774
lhand 25.3339 17.4644
lfingers 7.12502
lthumb 49.4676 38.9623
rfemur -15.9262 3.6329 23.6234
rtibia 32.5961
rfoot -29.696 -15.5649
rtoes 19.7424
lfemur -19.7066 4.16628 -21.5103
ltibia 35.0804
lfoot -40.3826 1.99285
ltoes 43.2236
3
root 18.5682 16.8274 -17.9855 6.01472 -2.15556 -0.970714
lowerback -2.87802 1.97944 -4.03452
upperback -1.30905 2.73584 2.92915
thorax -0.0692764 1.40495 5.36291
lowerneck -10.8911 -0.710116 2.3174
upperneck 1.65933 -1.07437 -3.62416
head 2.40077 -0.638877 -1.63871
rclavicle 3.1085e-014 3.18055e-015
rhumerus -56.5537 9.95353 -92.7919
rradius 57.8445
rwrist 25.7241
rhand -5.75072 -26.1246
rfingers 7.12502
rthumb 20.072 -55.1078
lclavicle 3.1085e-014 3.18055e-015
lhumerus -51.2313 -25.0554 111.25
lradius 57.8404
lwrist 14.6326
lhand 25.6986 17.6186
lfingers 7.12502
lthumb 49.8018 38.9448
rfemur -15.9432 3.81712 23.5884
rtibia 32.4747
rfoot -29.5447 -15.6463
rtoes 19.6218
lfemur -19.817 4.23533 -21.54
ltibia 35.1762
lfoot -40.0677 1.92395
ltoes 43.1518
4
root 18.5672 16.8497 -17.99 6.06477 -2.16629 -0.919673
lowerback -2.85258 2.02991 -3.98773
upperback -1.31057 2.80134 2.93152
thorax -0.0909068 1.4382 5.33872
lowerneck -10.7905 -0.1692 2.53171
upperneck 1.72194 -0.356468 -4.08511
head 2.43144 -0.294867 -1.7914
rclavicle 8.4235e-015 1.19271e-014
rhumerus -57.2305 10.2545 -92.7761
rradius 59.7621
rwrist 27.7307
rhand -5.84244 -25.4505
rfingers 7.12502
rthumb 19.9838 -54.4429
lclavicle 8.4235e-015 1.19271e-014
lhumerus -51.6623 -25.4213 111.456
lradius 58.859
lwrist 14.7746
lhand 25.8571 17.6342
lfingers 7.12502
lthumb 49.9469 38.8848
rfemur -15.9668 3.91765 23.5287
rtibia 32.4131
rfoot -29.5325 -15.7496
rtoes 19.5865
lfemur -20.0924 4.37863 -21.6014
ltibia 35.2505
lfoot -39.4294 1.91016
ltoes 42.5774
5
root 18.5681 16.8371 -18.0016 6.13168 -2.10922 -0.900664
lowerback -2.81575 2.07769 -3.8639
upperback -1.3368 2.86105 2.94847
thorax -0.140413 1.46943 5.28475
lowerneck -10.4743 0.509637 2.7208
upperneck 1.66208 0.549466 -4.53594
head 2.39387 0.146015 -1.92358
rclavicle -6.06293e-015 -5.56597e-015
rhumerus -57.6551 10.2777 -92.4784
rradius 61.597
rwrist 27.9893
rhand -4.45701 -24.4669
rfingers 7.12502
rthumb 21.315 -53.3147
lclavicle -6.06293e-015 -5.56597e-015
lhumerus -52.1828 -25.8864 111.771
lradius 59.8444
lwrist 14.8546
lhand 26.2789 18.4383
lfingers 7.12502
lthumb 50.3327 39.4846
rfemur -16.0961 3.99753 23.5035
rtibia 32.4271
rfoot -29.4048 -15.8689
rtoes 19.6138
lfemur -20.1503 4.31421 -21.6105
ltibia 35.2962
lfoot -39.0994 1.74242
ltoes 42.5837
6
root 18.5682 16.8384 -18.0111 6.18966 -2.07082 -0.870497
lowerback -2.76877 2.12261 -3.76557
upperback -1.35387 2.91743 2.96007
thorax -0.186584 1.49876 5.23932
lowerneck -10.2643 1.11919 2.90556
upperneck 1.7015 1.36556 -4.97373
head 2.41182 0.541605 -2.05908
rclavicle -3.35449e-014 4.77083e-015
rhumerus -58.1854 10.4398 -92.3352
rradius 63.4695
rwrist 28.7615
rhand -3.3677 -23.8147
rfingers 7.12502
rthumb 22.361 -52.5406
lclavicle -3.35449e-014 4.77083e-015
lhumerus -52.64 -26.2901 112.027
lradius 60.8186
lwrist 14.9269
lhand 26.6639 18.9651
lfingers 7.12502
lthumb 50.6843 39.821
rfemur -16.1825 4.09906 23.4665
rtibia 32.4112
rfoot -29.3186 -15.9993
rtoes 19.564
lfemur -20.3129 4.35091 -21.6405
ltibia 35.3825
lfoot -38.6383 1.61336
ltoes 42.3546
7
root 18.5688 16.839 -18.022 6.26019 -2.02366 -0.843783
lowerback -2.71975 2.17793 -3.65405
upperback -1.37928 2.98753 2.97442
thorax -0.24338 1.5353 5.18909
lowerneck -10.0128 1.75069 3.09763
upperneck 1.73609 2.21309 -5.42514
head 2.42826 0.953533 -2.19961
rclavicle -2.74074e-014 1.59028e-014
rhumerus -58.6563 10.5523 -92.1634
rradius 65.2312
rwrist 29.1842
rhand -2.29556 -23.176
rfingers 7.12502
rthumb 23.3899 -51.7746
lclavicle -2.74074e-014 1.59028e-014
lhumerus -53.0891 -26.7238 112.317
lradius 61.7462
lwrist 14.9593
lhand 27.0544 19.6311
lfingers 7.12502
lthumb 51.0403 40.2899
rfemur -16.3497 4.18746 23.4288
rtibia 32.5278
rfoot -29.2971 -16.1369
rtoes 19.4817
lfemur -20.4779 4.38899 -21.6696
ltibia 35.428
lfoot -38.107 1.47356
ltoes 42.107
8
root 18.5696 16.8386 -18.0347 6.33865 -1.95095 -0.819306
lowerback -2.66213 2.23896 -3.53277
upperback -1.41156 3.06508 2.9926
thorax -0.312382 1.57589 5.13672
lowerneck -9.72853 2.40079 3.29284
upperneck 1.77636 3.08837 -5.88374
head 2.4485 1.3801 -2.34275
rclavicle -5.01931e-015 -1.74931e-014
rhumerus -59.0718 10.6273 -91.9749
rradius 66.8789
rwrist 29.2492
rhand -1.31414 -22.6014
rfingers 7.12502
rthumb 24.3311 -51.077
lclavicle -5.01931e-015 -1.74931e-014
lhumerus -53.5248 -27.1929 112.643
lradius 62.6124
lwrist 14.9419
lhand 27.4157 20.2414
lfingers 7.12502
lthumb 51.3693 40.7144
rfemur -16.5081 4.26607 23.3918
rtibia 32.5926
rfoot -29.2335 -16.2846
rtoes 19.3598
lfemur -20.6892 4.42939 -21.6977
ltibia 35.5382
lfoot -37.5535 1.30459
ltoes 41.8241
9
root 18.5705 16.8363 -18.0487 6.41018 -1.83044 -0.791832
lowerback -2.58503 2.29792 -3.40914
upperback -1.4443 3.13963 3.01492
thorax -0.392245 1.61517 5.08624
lowerneck -9.42324 3.06406 3.49281
upperneck 1.83549 3.98455 -6.34624
head 2.47924 1.81781 -2.48814
rclavicle 1.39398e-014 -3.18055e-015
rhumerus -59.4314 10.6754 -91.7801
rradius 68.4118
rwrist 28.9735
rhand -0.242158 -22.1453
rfingers 7.12502
rthumb 25.3584 -50.4792
lclavicle 1.39398e-014 -3.18055e-015
lhumerus -53.9293 -27.6993 113
lradius 63.3957
lwrist 14.8646
lhand 27.7583 20.9624
lfingers 7.12502
lthumb 51.6807 41.2557
rfemur -16.6736 4.34599 23.3551
rtibia 32.6858
rfoot -29.1695 -16.4801
rtoes 19.194
lfemur -20.9137 4.47225 -21.7269
ltibia 35.6823
lfoot -36.9599 1.08611
ltoes 41.5009
10
root 18.5712 16.8337 -18.0639 6.46042 -1.64457 -0.754999
lowerback -2.47885 2.35258 -3.29403
upperback -1.47054 3.20834 3.04294
thorax -0.481615 1.65159 5.04507
lowerneck -9.0897 3.73401 3.69577
upperneck 1.90586 4.89336 -6.81021
head 2.5163 2.26282 -2.63498
rclavicle -1.27222e-014 -2.78299e-014
rhumerus -59.7423 10.7051 -91.5861
rradius 69.8066
rwrist 28.5372
rhand 0.850911 -21.8281
rfingers 7.12502
rthumb 26.4051 -50.0092
lclavicle -1.27222e-014 -2.78299e-014
lhumerus -54.2858 -28.2489 113.391
lradius 64.0846
lwrist 14.7231
lhand 28.0612 21.6823
lfingers 7.12502
lthumb 51.9557 41.8142
rfemur -16.8233 4.42437 23.3152
rtibia 32.8029
rfoot -29.1181 -16.7364
rtoes 18.9735
lfemur -21.1565 4.51809 -21.7614
ltibia 35.8738
lfoot -36.3053 0.810934
ltoes 41.1084
11
root 18.5708 16.8297 -18.0802 6.47749 -1.41241 -0.713381
lowerback -2.33714 2.40712 -3.19616
upperback -1.48351 3.27687 3.07947
thorax -0.578495 1.68794 5.02094
lowerneck -8.73286 4.40517 3.89456
upperneck 1.98429 5.80785 -7.26601
head 2.55863 2.71192 -2.77895
rclavicle 2.79292e-014 1.66979e-014
rhumerus -59.9965 10.7188 -91.3851
rradius 71.0941
rwrist 27.87
rhand 2.1077 -21.6713
rfingers 7.12502
rthumb 27.6076 -49.6661
lclavicle 2.79292e-014 1.66979e-014
lhumerus -54.5877 -28.8447 113.808
lradius 64.6586
lwrist 14.4938
lhand 28.2436 22.1342
lfingers 7.12502
lthumb 52.1212 42.1676
rfemur -16.9395 4.51704 23.2807
rtibia 32.937
rfoot -29.1038 -17.0519
rtoes 18.7446
lfemur -21.4013 4.59312 -21.7922
ltibia 36.1264
lfoot -35.536 0.485665
ltoes 40.5089
12
root 18.5685 16.8242 -18.097 6.44916 -1.14299 -0.669268
lowerback -2.15758 2.46753 -3.12916
upperback -1.47532 3.35341 3.13006
thorax -0.678256 1.72828 5.02743
lowerneck -8.35213 5.06797 4.09221
upperneck 2.06281 6.71496 -7.71907
head 2.60289 3.15867 -2.92318
rclavicle 3.51103e-014 1.19271e-014
rhumerus -60.2063 10.724 -91.1823
rradius 72.2479
rwrist 27.2216
rhand 3.35705 -21.6543
rfingers 7.12502
rthumb 28.8017 -49.452
lclavicle 3.51103e-014 1.19271e-014
lhumerus -54.8278 -29.4942 114.256
lradius 65.129
lwrist 14.1938
lhand 28.342 22.474
lfingers 7.12502
lthumb 52.2103 42.4539
rfemur -16.9978 4.63314 23.2582
rtibia 33.0704
rfoot -29.1309 -17.432
rtoes 18.5173
lfemur -21.6397 4.70165 -21.8116
ltibia 36.4577
lfoot -34.6622 0.111555
ltoes 39.6706
